<?xml version="1.0" encoding="utf-8"?>
<!-- Generator: Adobe Illustrator 27.7.0, SVG Export Plug-In . SVG Version: 6.00 Build 0)  -->
<svg version="1.1" id="Layer_1" xmlns="http://www.w3.org/2000/svg" xmlns:xlink="http://www.w3.org/1999/xlink" x="0px" y="0px"
	 viewBox="0 0 266.7 82.9" style="enable-background:new 0 0 266.7 82.9;" xml:space="preserve">
<style type="text/css">
	.st0{fill:#FFFFFF;}
</style>
<g>
	<g>
		<path class="st0" d="M20.8,58.4c-4.1,0-8-0.5-11.8-1.6c-3.8-1.1-6.8-2.5-9.1-4.3l4-8.9c2.2,1.6,4.8,2.8,7.8,3.8c3,1,6,1.5,9.1,1.5
			c2.3,0,4.2-0.2,5.7-0.7c1.4-0.5,2.5-1.1,3.2-1.9c0.7-0.8,1-1.8,1-2.8c0-1.4-0.5-2.4-1.6-3.3c-1.1-0.8-2.5-1.5-4.2-2
			c-1.8-0.5-3.7-1-5.8-1.5c-2.1-0.5-4.2-1-6.4-1.7c-2.1-0.7-4.1-1.6-5.8-2.6c-1.8-1.1-3.2-2.5-4.3-4.2S1,24.1,1,21.4
			c0-2.9,0.8-5.6,2.4-8c1.6-2.4,4-4.3,7.2-5.8c3.2-1.4,7.2-2.2,12-2.2c3.2,0,6.4,0.4,9.5,1.1c3.1,0.8,5.9,1.9,8.3,3.4l-3.7,9
			c-2.4-1.4-4.8-2.4-7.2-3c-2.4-0.7-4.7-1-7-1c-2.3,0-4.2,0.3-5.6,0.8c-1.5,0.5-2.5,1.2-3.1,2.1c-0.6,0.9-0.9,1.8-0.9,3
			c0,1.3,0.5,2.4,1.6,3.2c1.1,0.8,2.5,1.4,4.2,1.9c1.8,0.5,3.7,1,5.8,1.5c2.1,0.5,4.2,1,6.4,1.7c2.1,0.6,4.1,1.5,5.8,2.6
			c1.8,1.1,3.2,2.5,4.3,4.2c1.1,1.8,1.6,4,1.6,6.6c0,2.9-0.8,5.5-2.4,7.9c-1.6,2.4-4,4.3-7.2,5.8C29.7,57.7,25.7,58.4,20.8,58.4z"/>
		<path class="st0" d="M63.5,58.1c-3.3,0-6.2-0.6-8.7-1.9c-2.6-1.3-4.5-3.2-6-5.8c-1.4-2.6-2.1-5.9-2.1-10V18.2h11.4v20.5
			c0,3.3,0.7,5.7,2.1,7.2c1.4,1.5,3.3,2.3,5.9,2.3c1.8,0,3.3-0.4,4.7-1.1c1.4-0.8,2.4-1.9,3.2-3.5c0.8-1.6,1.2-3.6,1.2-6V18.2h11.4
			v39.3H75.7V46.7l2,3.1c-1.3,2.7-3.3,4.8-5.8,6.2C69.3,57.4,66.5,58.1,63.5,58.1z"/>
		<path class="st0" d="M118.1,17.6c3.1,0,5.9,0.6,8.4,1.9c2.5,1.2,4.4,3.1,5.8,5.7c1.4,2.6,2.1,5.8,2.1,9.8v22.5H123V36.8
			c0-3.2-0.7-5.5-2.1-7c-1.4-1.5-3.3-2.3-5.9-2.3c-1.8,0-3.4,0.4-4.9,1.1c-1.4,0.8-2.6,1.9-3.4,3.5c-0.8,1.6-1.2,3.6-1.2,6v19.4
			H94.2V18.2h10.9v10.9l-2-3.3c1.4-2.6,3.4-4.7,6.1-6.1C111.7,18.3,114.7,17.6,118.1,17.6z"/>
		<path class="st0" d="M147.5,12.7c-2.1,0-3.8-0.6-5.1-1.8c-1.3-1.2-2-2.7-2-4.5c0-1.8,0.7-3.3,2-4.5c1.3-1.2,3-1.8,5.1-1.8
			c2.1,0,3.8,0.6,5.1,1.7c1.3,1.1,2,2.6,2,4.4c0,1.9-0.6,3.5-1.9,4.7C151.3,12.1,149.6,12.7,147.5,12.7z M141.8,57.5V18.2h11.4v39.3
			H141.8z"/>
		<path class="st0" d="M156.1,27.8v-8.8h27.3v8.8H156.1z M176.9,58.1c-4.6,0-8.2-1.2-10.8-3.5c-2.6-2.4-3.9-5.9-3.9-10.6V9.5h11.4
			v34.3c0,1.7,0.4,2.9,1.3,3.8c0.9,0.9,2.1,1.4,3.6,1.4c1.8,0,3.3-0.5,4.6-1.5l3.1,8c-1.2,0.8-2.6,1.4-4.2,1.9
			C180.3,57.9,178.7,58.1,176.9,58.1z"/>
		<path class="st0" d="M217.7,58.4c-3.5,0-6.6-0.6-9.5-1.9c-2.9-1.3-5.3-3.1-7.1-5.5l6.6-7.9c1.4,1.9,2.9,3.3,4.5,4.2
			c1.6,0.9,3.2,1.4,5,1.4c4.8,0,7.2-2.8,7.2-8.5V15.9h-18V6.4h29.7v33.2c0,6.3-1.6,11.1-4.7,14.2C228.3,56.8,223.7,58.4,217.7,58.4z
			"/>
	</g>
	<g>
		<path class="st0" d="M198.3,73.7V62.8c5.5,3.2,11,5.4,16.6,6.8c5.6,1.4,11.4,2.1,17.6,2.1s12-0.7,17.6-2.1
			c5.6-1.4,11.1-3.7,16.6-6.8v10.9c-4.3,3-9.4,5.3-15.3,6.9c-5.9,1.6-12.2,2.3-18.9,2.3c-6.7,0-13-0.8-18.8-2.3
			C207.9,79,202.8,76.7,198.3,73.7z"/>
	</g>
	<rect x="243.6" y="6.4" class="st0" width="21.4" height="9.5"/>
</g>
</svg>
