<?xml version="1.0" encoding="utf-8"?>
<!-- Generator: Adobe Illustrator 27.7.0, SVG Export Plug-In . SVG Version: 6.00 Build 0)  -->
<svg version="1.1" id="Layer_1" xmlns="http://www.w3.org/2000/svg" xmlns:xlink="http://www.w3.org/1999/xlink" x="0px" y="0px"
	 viewBox="0 0 2000 621.7" style="enable-background:new 0 0 2000 621.7;" xml:space="preserve">
<style type="text/css">
	.st0{fill:url(#SVGID_1_);}
	.st1{fill:url(#SVGID_00000066483446240693067130000010020608998641112457_);}
	.st2{fill:url(#SVGID_00000096770415547993382050000014253593967246929024_);}
	.st3{fill:url(#SVGID_00000137855142862890832100000010702402339817776556_);}
	.st4{fill:url(#SVGID_00000016794044853721173170000013525859757076217787_);}
	.st5{fill:url(#SVGID_00000069386059373007954510000004800579896133373885_);}
	.st6{fill:url(#SVGID_00000155838355166423786880000005227442486773365158_);}
	.st7{fill:url(#SVGID_00000053540069977859138300000017297820009407032745_);}
	.st8{fill:url(#SVGID_00000132781865204722633710000008523096012182009529_);}
</style>
<g>
	<linearGradient id="SVGID_1_" gradientUnits="userSpaceOnUse" x1="1903.9142" y1="50.6714" x2="1411.2123" y2="380.0942">
		<stop  offset="0" style="stop-color:#FFC017"/>
		<stop  offset="1" style="stop-color:#FFDB00"/>
	</linearGradient>
	<path class="st0" d="M1632.1,437.8c-25.9,0-49.8-4.8-71.5-14.5c-21.7-9.7-39.5-23.5-53.4-41.4l49.3-59.2
		c10.6,13.9,21.7,24.4,33.4,31.5c11.7,7.1,24.3,10.7,37.8,10.7c36.2,0,54.2-21.2,54.2-63.6V118.9h-134.8V47.7h223v248.7
		c0,47.5-11.7,82.9-35.1,106.3C1711.7,426.1,1677.4,437.8,1632.1,437.8z"/>
	<g>
		
			<linearGradient id="SVGID_00000145756961150419365670000016255950226464905098_" gradientUnits="userSpaceOnUse" x1="1995.5988" y1="388.7743" x2="1458.001" y2="655.4566">
			<stop  offset="0" style="stop-color:#EF6646"/>
			<stop  offset="1" style="stop-color:#EF4719"/>
		</linearGradient>
		<path style="fill:url(#SVGID_00000145756961150419365670000016255950226464905098_);" d="M1487.2,552.7v-81.6
			c41.3,23.7,82.8,40.8,124.6,51.2c41.8,10.4,85.7,15.6,131.8,15.6c46,0,89.9-5.2,131.8-15.6c41.8-10.4,83.4-27.5,124.6-51.2v81.6
			c-32.5,22.6-70.8,39.8-114.8,51.5c-44,11.7-91.2,17.5-141.6,17.5s-97.4-5.8-141.1-17.5C1558.9,592.5,1520.4,575.3,1487.2,552.7z"
			/>
	</g>
	<g>
		<g>
			
				<linearGradient id="SVGID_00000017490135657107150770000002599276440745482382_" gradientUnits="userSpaceOnUse" x1="1546.4832" y1="-260.1952" x2="-230.7281" y2="381.4754">
				<stop  offset="0" style="stop-color:#004375"/>
				<stop  offset="1" style="stop-color:#0043A2"/>
			</linearGradient>
			<path style="fill:url(#SVGID_00000017490135657107150770000002599276440745482382_);" d="M274.5,237.2
				c-13.2-8-27.7-14.4-43.6-19.2c-15.9-4.7-31.8-8.9-47.7-12.6c-15.9-3.6-30.4-7.3-43.6-11c-13.1-3.6-23.7-8.5-31.8-14.5
				c-8-6-12.1-14-12.1-23.8c0-8.4,2.4-15.8,7.1-22.2c4.7-6.4,12.6-11.6,23.6-15.6c11-4,25-6,42.2-6c17.2,0,34.7,2.5,52.6,7.4
				c17.9,4.9,35.8,12.5,53.7,22.7l27.4-67.4c-17.9-11.3-38.5-19.8-61.9-25.5c-23.4-5.7-47.1-8.5-71.2-8.5
				c-36.2,0-66.2,5.4-90.1,16.2C55.2,68,37.3,82.5,25.5,100.5c-11.9,18.1-17.8,38.1-17.8,60c0,20.5,4.1,37.3,12.3,50.4
				s18.9,23.7,32.1,31.8c13.1,8,27.7,14.6,43.6,19.7c15.9,5.1,31.8,9.4,47.7,12.9c15.9,3.5,30.4,7.1,43.6,11
				c13.1,3.8,23.7,8.8,31.8,14.8c8,6,12.1,14.2,12.1,24.4c0,8-2.6,15.2-7.7,21.4c-5.1,6.2-13.1,11.1-23.8,14.5
				c-10.8,3.5-24.9,5.2-42.5,5.2c-23,0-45.7-3.7-68.2-11.2c-22.5-7.5-41.9-17.1-58.3-28.8L0,393.4c17.2,13.1,39.8,23.8,67.9,32.1
				c28.1,8.2,57.5,12.3,88.2,12.3c36.5,0,66.7-5.5,90.7-16.4c23.9-11,41.9-25.4,54-43.3c12.1-17.9,18.1-37.6,18.1-59.2
				c0-20.1-4.1-36.7-12.3-49.9C298.3,255.9,287.6,245.3,274.5,237.2z"/>
			
				<linearGradient id="SVGID_00000097482466489012633960000005164553396072004271_" gradientUnits="userSpaceOnUse" x1="1599.4852" y1="-113.3976" x2="-177.7262" y2="528.273">
				<stop  offset="0" style="stop-color:#004375"/>
				<stop  offset="1" style="stop-color:#0043A2"/>
			</linearGradient>
			<path style="fill:url(#SVGID_00000097482466489012633960000005164553396072004271_);" d="M563.2,282.2c0,17.9-2.9,32.8-8.8,44.7
				c-5.8,11.9-13.9,20.6-24.1,26.3c-10.2,5.7-21.9,8.5-35.1,8.5c-19,0-33.7-5.8-44.1-17.3c-10.4-11.5-15.6-29.5-15.6-54v-154h-85.5
				V303c0,30.3,5.3,55.3,15.9,74.8c10.6,19.5,25.5,34.1,44.7,43.6c19.2,9.5,41,14.2,65.5,14.2c22.6,0,43.6-5.2,62.7-15.6
				c11.2-6.1,20.7-13.9,28.8-23.4v34.6h81.1V136.4h-85.5V282.2z"/>
			
				<linearGradient id="SVGID_00000142169150957139954550000012474609293722235785_" gradientUnits="userSpaceOnUse" x1="1640.713" y1="0.7897" x2="-136.4983" y2="642.4603">
				<stop  offset="0" style="stop-color:#004375"/>
				<stop  offset="1" style="stop-color:#0043A2"/>
			</linearGradient>
			<path style="fill:url(#SVGID_00000142169150957139954550000012474609293722235785_);" d="M948.1,146c-18.4-9.3-39.4-14-62.7-14
				c-25.2,0-47.7,5.3-67.4,15.9c-11.7,6.3-21.7,14.2-30.1,23.6v-35.1h-81.6v294.8h85.5V285.4c0-18.3,3-33.2,9-44.9
				c6-11.7,14.4-20.4,25.2-26c10.8-5.7,22.9-8.5,36.4-8.5c19,0,33.7,5.7,44.1,17c10.4,11.3,15.6,28.9,15.6,52.6v155.6h85.5V262.4
				c0-29.9-5.3-54.5-15.9-73.7C981,169.6,966.5,155.3,948.1,146z"/>
			
				<linearGradient id="SVGID_00000165957392497676014220000006472077549542474886_" gradientUnits="userSpaceOnUse" x1="1593.9825" y1="-128.6382" x2="-183.2288" y2="513.0325">
				<stop  offset="0" style="stop-color:#004375"/>
				<stop  offset="1" style="stop-color:#0043A2"/>
			</linearGradient>
			<path style="fill:url(#SVGID_00000165957392497676014220000006472077549542474886_);" d="M1144,12.9
				c-9.9-8.6-22.7-12.9-38.3-12.9c-15.7,0-28.5,4.6-38.4,13.7c-9.9,9.1-14.8,20.5-14.8,34c0,13.5,4.9,24.8,14.8,34
				c9.9,9.1,22.6,13.7,38.4,13.7c16.1,0,28.9-4.7,38.6-14c9.7-9.3,14.5-21.1,14.5-35.3C1158.7,32.5,1153.8,21.5,1144,12.9z"/>
			
				<linearGradient id="SVGID_00000052099852492175109500000008422162532335300792_" gradientUnits="userSpaceOnUse" x1="1669.3986" y1="80.239" x2="-107.8128" y2="721.9095">
				<stop  offset="0" style="stop-color:#004375"/>
				<stop  offset="1" style="stop-color:#0043A2"/>
			</linearGradient>
			
				<rect x="1062.9" y="136.4" style="fill:url(#SVGID_00000052099852492175109500000008422162532335300792_);" width="85.5" height="294.8"/>
			
				<linearGradient id="SVGID_00000067942707723578659930000012658075857486406828_" gradientUnits="userSpaceOnUse" x1="1680.3464" y1="110.5607" x2="-96.8649" y2="752.2313">
				<stop  offset="0" style="stop-color:#004375"/>
				<stop  offset="1" style="stop-color:#0043A2"/>
			</linearGradient>
			<path style="fill:url(#SVGID_00000067942707723578659930000012658075857486406828_);" d="M1373,356.7c-9.5,7.3-21,11-34.5,11
				c-11.3,0-20.3-3.4-26.8-10.1c-6.6-6.8-9.9-16.3-9.9-28.8v-120h73.4V143h-73.4V71.2h-85.5V143h-45.5v65.7h45.5v121.1
				c0,35.1,9.7,61.5,29,79.2c19.4,17.7,46.4,26.6,81.1,26.6c13.1,0,25.8-1.6,38.1-4.7c12.2-3.1,22.7-7.8,31.5-14L1373,356.7z"/>
		</g>
		
			<linearGradient id="SVGID_00000091014538129106614800000015562358949074543767_" gradientUnits="userSpaceOnUse" x1="1697.739" y1="158.7325" x2="-79.4723" y2="800.4031">
			<stop  offset="0" style="stop-color:#004375"/>
			<stop  offset="1" style="stop-color:#0043A2"/>
		</linearGradient>
		
			<rect x="1826.8" y="47.7" style="fill:url(#SVGID_00000091014538129106614800000015562358949074543767_);" width="160.1" height="71.1"/>
	</g>
</g>
</svg>
